<svg id="Warstwa_1" data-name="Warstwa 1" xmlns="http://www.w3.org/2000/svg" viewBox="0 0 97.56 71.61"><defs><style>.cls-1{font-size:16px;font-family:Apple-Chancery, Apple Chancery;}.cls-1,.cls-10{fill:#e94b38;}.cls-2{letter-spacing:0.01em;}.cls-3,.cls-4,.cls-5,.cls-6,.cls-7{fill:none;stroke-miterlimit:10;}.cls-3{stroke:#000;}.cls-3,.cls-4{stroke-width:3px;}.cls-4{stroke:#e94b38;}.cls-5,.cls-7{stroke:#f1f1f1;}.cls-5,.cls-6{stroke-width:2px;}.cls-6{stroke:#fff;}.cls-7{stroke-linecap:round;}.cls-8{fill:#fff;}.cls-9{fill:#f1f1f1;}</style></defs><text class="cls-1" transform="translate(0 60.02)"><tspan class="cls-2">R</tspan><tspan x="12.79" y="0">ecipes Book</tspan></text><path class="cls-3" d="M84.68,35.24" transform="translate(-51.22 -28.39)"/><path class="cls-3" d="M70.45,40" transform="translate(-51.22 -28.39)"/><path class="cls-4" d="M74.16,35.24H70.39Q70.27,54.13,70.16,73l4.22,0q12.21.1,24.35.11C87.3,65.28,74.16,67,74.16,67V32c17-2,24,6,24,6V73.88" transform="translate(-51.22 -28.39)"/><path class="cls-4" d="M122.73,35.53h3.77q.12,18.88.23,37.76l-4.22,0q-12.21.09-24.35.1c11.43-7.86,24.57-6.14,24.57-6.14v-35c-17-2-24,6.05-24,6.05V74.18" transform="translate(-51.22 -28.39)"/><line class="cls-5" x1="17.05" y1="46.49" x2="78.05" y2="46.78"/><path class="cls-4" d="M109.45,33a3,3,0,0,0-.75,3.82A2.87,2.87,0,0,0,111.45,38a3.61,3.61,0,0,0,4,5,3.06,3.06,0,0,0,.61,3.09,3.26,3.26,0,0,0,4.39-.09,3.43,3.43,0,0,0,1.78,2.4,3.53,3.53,0,0,0,4.22-1.4" transform="translate(-51.22 -28.39)"/><line class="cls-6" x1="59.48" y1="6.25" x2="62.23" y2="2.61"/><line class="cls-7" x1="74.23" y1="17.61" x2="80.51" y2="10.78"/><path class="cls-8" d="M121.61,45.68v0l.06-.4a0,0,0,0,0,0,0l.15-.35,0,0,.23-.3,0,0,.31-.24,0,0,.36-.15h0a1.14,1.14,0,0,0-.51.27,1.06,1.06,0,0,0-.39.42,1.12,1.12,0,0,0-.18.56,1.22,1.22,0,0,0,0,.6l.15.35a1.4,1.4,0,0,0,.54.54l.36.15a1.55,1.55,0,0,0,.8,0,3,3,0,0,0,.37-.16,3.34,3.34,0,0,0,.32-.24l0,0a3.92,3.92,0,0,0,.25-.32v0c.06-.12.11-.25.16-.37v0c0-.13,0-.28,0-.42a1,1,0,0,0-.13-.57,1.34,1.34,0,0,0-.79-.8,1.27,1.27,0,0,0-.58-.13l-.4.06a1.57,1.57,0,0,0-.66.38l-.23.31a1.42,1.42,0,0,0-.21.75Z" transform="translate(-51.22 -28.39)"/><path class="cls-8" d="M123.2,47.45a1.5,1.5,0,0,0,0-3,1.5,1.5,0,0,0,0,3Z" transform="translate(-51.22 -28.39)"/><path class="cls-8" d="M123.47,47.63a1.5,1.5,0,0,0,0-3,1.5,1.5,0,0,0,0,3Z" transform="translate(-51.22 -28.39)"/><path class="cls-8" d="M123.46,47.65a1.5,1.5,0,0,0,0-3,1.5,1.5,0,0,0,0,3Z" transform="translate(-51.22 -28.39)"/><path class="cls-8" d="M123.17,47.56a1.5,1.5,0,0,0,0-3,1.5,1.5,0,0,0,0,3Z" transform="translate(-51.22 -28.39)"/><path class="cls-8" d="M124.46,45.16c0-.26.05-.52.07-.78a5.1,5.1,0,0,0-.08-1.1l0,.4a2,2,0,0,1,0-.42l0,.4,0-.14-.15.36v0l-.23.31v0l-.3.23h0l-.36.15h0l-.4,0h.14l-.4-.05a2.66,2.66,0,0,1,.73.21l-.36-.15.12.06-.3-.23.09.09-.23-.3.06.11-.15-.36a2.42,2.42,0,0,1,.13.53l0-.4a1.22,1.22,0,0,1,0,.27l0-.4a3.76,3.76,0,0,0-.14.89,1.58,1.58,0,0,0,.44,1.06,1,1,0,0,0,.48.31,1.15,1.15,0,0,0,.58.13,1.54,1.54,0,0,0,1.06-.44,1.52,1.52,0,0,0,.44-1.06v-.11l0,.4a2,2,0,0,1,0-.24,3.11,3.11,0,0,0,.09-.6,3,3,0,0,0-.11-.88,2.42,2.42,0,0,0-.29-.73,2.36,2.36,0,0,0-.63-.63,2.7,2.7,0,0,0-.55-.24,2.29,2.29,0,0,0-2,0,1.61,1.61,0,0,0-.75,1,2.89,2.89,0,0,0-.08.59,4.66,4.66,0,0,0,.09.9l0-.4a5.87,5.87,0,0,1-.06,1.32,1,1,0,0,0,.13.57,1.34,1.34,0,0,0,.79.8,1.27,1.27,0,0,0,.58.13,1.56,1.56,0,0,0,1.06-.44l.23-.31a1.42,1.42,0,0,0,.21-.75Z" transform="translate(-51.22 -28.39)"/><path class="cls-8" d="M124.57,46.94a1.5,1.5,0,0,0,0-3,1.5,1.5,0,0,0,0,3Z" transform="translate(-51.22 -28.39)"/><path class="cls-8" d="M126.26,45.26a2.29,2.29,0,0,1,.3-.5l-.24.3a4.31,4.31,0,0,1,.69-.66l-.31.24c.12-.1.24-.18.37-.27a3.25,3.25,0,0,0,.61-.5,1.24,1.24,0,0,0,.31-.48,1.17,1.17,0,0,0,.12-.58,1.14,1.14,0,0,0-.12-.58,1.11,1.11,0,0,0-.31-.48,1.54,1.54,0,0,0-1.07-.44l-.39,0a1.47,1.47,0,0,0-.67.39,1.21,1.21,0,0,1-.2.19l.3-.23a13,13,0,0,0-1.12.87,4.52,4.52,0,0,0-.56.67,2.48,2.48,0,0,0-.3.49,1.66,1.66,0,0,0-.15,1.16,1.06,1.06,0,0,0,.27.51,1,1,0,0,0,.42.38,1.5,1.5,0,0,0,1.15.16l.36-.16a1.45,1.45,0,0,0,.54-.53Z" transform="translate(-51.22 -28.39)"/><path class="cls-9" d="M113.08,35.62a3.37,3.37,0,0,0,2.26-4.3l-1.45,1.9a16.42,16.42,0,0,0,4.42.22,18.18,18.18,0,0,1,4.29.22l-1.3-2.26c.46-.28.49-.36.1-.23l-.27,0c-.22,0-.45,0-.67.05-.61,0-1.2-.09-1.81-.1a5.16,5.16,0,0,0-1.7.26l-.33.11c.19,0,.17,0-.07,0a2.08,2.08,0,0,0-1,.07c-1.3.4-1.55,2.65,0,2.89q2.66.42,5.26,1c1.63.38,3.53,1.22,4.93-.15a1.51,1.51,0,0,0-1.46-2.51,23.84,23.84,0,0,1-2.44.78,3.54,3.54,0,0,0-2.51,1,1.52,1.52,0,0,0,1.46,2.51c2.12-.45,4.32-.92,6.46-.36l-.66-2.5c-.64.63-1.87.47-2.69.59a9.59,9.59,0,0,0-3.14,1c-2.31,1.25-2.12,4.24-2.4,6.5a1.51,1.51,0,0,0,1.9,1.45A6.19,6.19,0,0,0,123,42.39a3.82,3.82,0,0,0,.86-1.5,7.33,7.33,0,0,1,.38-1.43l-2.74-1.16a4.82,4.82,0,0,0,0,2.84,2.09,2.09,0,0,0,2.42,1.43c2.19-.53,2.19-3.16,1.74-4.87l-2.89.8a10.8,10.8,0,0,1,.4,1.68c.08.55,0,1.12.13,1.67a2,2,0,0,0,3,1.36,3.58,3.58,0,0,0,1.84-2.51,4.07,4.07,0,0,0,0-1.63,2.48,2.48,0,0,0-.26-.75c-.16-.48-.29-.25-.38.69a.1.1,0,0,0,.09,0h-.8l.08,0-1-1a4.32,4.32,0,0,1,0,1l0,1.29c.08,1.93,3.08,1.94,3,0l-.07-1.73a4.12,4.12,0,0,0-.2-1.56c-.55-1.18-1.88-1.07-2.82-.47a2.19,2.19,0,0,0-.72,2.92.92.92,0,0,1,.1.67c0,.06-.19.39-.19.4l0,0c-.11.12,0,.1.43-.05l.66.38c.16.48.21.52.17.12,0-.18,0-.35,0-.53s-.07-.62-.12-.93a11.43,11.43,0,0,0-.42-1.82,1.5,1.5,0,0,0-2.89.8c.09.33.12.67.19,1a1.29,1.29,0,0,0,0,.2c.12.23-1-.09.39-.07l.76.21c.35.15,0,.23.16-.07s.07-.46.12-.66a1.51,1.51,0,0,0-2.75-1.16,5.42,5.42,0,0,0-.48,1.23,3.25,3.25,0,0,1-.28,1.08c-.28.4-1,.55-1.41.69l1.9,1.45c.13-1,.2-2.1.4-3.12.15-.79.73-.91,1.44-1.14,1.89-.6,4-.18,5.51-1.7a1.52,1.52,0,0,0-.66-2.51c-2.69-.71-5.4-.21-8.06.36l1.46,2.5c.27-.33,1.07-.22,1.48-.31.75-.15,1.41-.55,2.14-.75l-1.45-2.5c.29-.1.38-.13.25-.07l-.43-.1-.84-.22-2.12-.49c-1.37-.29-2.75-.54-4.13-.76v2.89c-.29,0-.21,0,.24.06a2.25,2.25,0,0,0,.63-.06c.3,0,.58-.19.88-.26a8.22,8.22,0,0,1,2,0c1.22,0,3.25,0,3.83-1.34a1.53,1.53,0,0,0-1.29-2.26,19.46,19.46,0,0,0-4.57-.2,16.47,16.47,0,0,1-4.14-.24,1.51,1.51,0,0,0-1.44,1.9c.09.27.16.51-.17.61-1.83.6-1,3.5.8,2.89Z" transform="translate(-51.22 -28.39)"/><path class="cls-10" d="M111,36.57a1.5,1.5,0,0,0,0-3,1.5,1.5,0,0,0,0,3Z" transform="translate(-51.22 -28.39)"/><path class="cls-9" d="M110.16,33.84l-.11.14a1.47,1.47,0,0,0-.39.66,1.49,1.49,0,0,0,1,1.84l.23.08a1.69,1.69,0,0,0,1.15-.16l.31-.23a1.24,1.24,0,0,0,.31-.48.86.86,0,0,0,.1-.38,1.22,1.22,0,0,0,0-.6l-.15-.36a1.55,1.55,0,0,0-.54-.54,2.78,2.78,0,0,0-.4-.16,2.22,2.22,0,0,0-.45-.06h-.16l.4,0h-.06l.36.15,0,0,.3.24,0,0,.23.3,0,0,.16.36,0-.08.06.4v-.08l0,.4a.23.23,0,0,1,0-.11l-.15.36a1.19,1.19,0,0,1,.09-.15l-.23.3a9.29,9.29,0,0,1,1.56-1.51l-.3.23.26-.19a1.12,1.12,0,0,0,.42-.39,1.14,1.14,0,0,0,.27-.51,1.18,1.18,0,0,0,0-.59,1.12,1.12,0,0,0-.18-.56,1.55,1.55,0,0,0-.9-.69,1.45,1.45,0,0,0-1.15.15,11.07,11.07,0,0,0-1.79,1.55c-.11.12-.22.24-.32.37a3.27,3.27,0,0,0-.35.46,1.89,1.89,0,0,0-.24.9,1.82,1.82,0,0,0,.52,1.29,1.67,1.67,0,0,0,.77.42,1.29,1.29,0,0,0,.48.05h.12l-.4-.05h0l-.36-.15h0l1.15-2.74-.22-.07.66,2.51.11-.14a1.08,1.08,0,0,0,.31-.48,1.06,1.06,0,0,0,.13-.58,1.5,1.5,0,0,0-2.56-1.06Z" transform="translate(-51.22 -28.39)"/><path class="cls-9" d="M112.34,36.44a1.5,1.5,0,0,0,0-3,1.5,1.5,0,0,0,0,3Z" transform="translate(-51.22 -28.39)"/><path class="cls-9" d="M111.88,36.52a1.5,1.5,0,0,0,0-3,1.5,1.5,0,0,0,0,3Z" transform="translate(-51.22 -28.39)"/><path class="cls-9" d="M116.63,32.87a1.55,1.55,0,0,1,1-.53c.7,0,1.42,0,2.12,0a13.21,13.21,0,0,1,1.78,0,3.33,3.33,0,0,1,.77.26,3.17,3.17,0,0,0,.51.2c.23,0-.07.1-.21-.22l-.2-.76a23.88,23.88,0,0,0,.15,3.16A6.82,6.82,0,0,0,124,37.25c1,1.5,1.64,3.28,2.61,4.82s3.63.13,2.59-1.51c-.9-1.44-1.48-3.05-2.39-4.48a11.29,11.29,0,0,0-.88-1.21c-.23-.27-.41-.4-.49-.67-.24-.81.08-1.73-.08-2.56-.22-1.21-1.25-1.52-2.27-1.92a8,8,0,0,0-2.88-.37c-1,0-2-.08-2.94,0a4.72,4.72,0,0,0-2.77,1.39,1.5,1.5,0,1,0,2.12,2.12Z" transform="translate(-51.22 -28.39)"/><path class="cls-9" d="M122.9,45.51v0l0-.4a.13.13,0,0,1,0,.06l.15-.36a.43.43,0,0,1,0,.07l.23-.3a.46.46,0,0,1-.07.07l.3-.23-.12.07.35-.15-.14,0-.49.2a2.6,2.6,0,0,0-.54.4l.3-.24a.41.41,0,0,1-.11.07l.36-.15-.07,0,.4,0h-.06l.4,0-.06,0,.35.15,0,0,.3.24,0,0,.23.31s0,0,0,0l.15.36v0l0,.4v0A1.72,1.72,0,0,0,124.3,45a1.24,1.24,0,0,0-.48-.31,1.29,1.29,0,0,0-.58-.13l-.4.06a1.51,1.51,0,0,0-.66.38l-.24.31a1.5,1.5,0,0,0-.2.75,1.61,1.61,0,0,0,.22.81,1.56,1.56,0,0,0,.27.35,2.79,2.79,0,0,0,.33.25l.19.08.19.08h0l.21,0,.22,0h0l.4-.06h0l0,0,.36-.15,0,0a1.24,1.24,0,0,0,.23-.17l.24-.18-.3.23.16-.1-.36.16.21-.08.44-.18.08,0a2.33,2.33,0,0,0,.36-.28l0,0,.24-.3,0,0a2,2,0,0,0,.18-.42.06.06,0,0,1,0,0l.05-.4v0a1,1,0,0,0-.13-.57,1.34,1.34,0,0,0-.79-.8,1.27,1.27,0,0,0-.58-.13l-.4.06a1.57,1.57,0,0,0-.66.38l-.23.31a1.42,1.42,0,0,0-.21.75Z" transform="translate(-51.22 -28.39)"/><path class="cls-8" d="M124.29,45.29a2.38,2.38,0,0,1-.15-.52l.06.4a1.82,1.82,0,0,1,0-.57l0,.4a1.91,1.91,0,0,1,.14-.52l-.15.36a1.34,1.34,0,0,1,.12-.24,1.12,1.12,0,0,0,.18-.56,1.22,1.22,0,0,0,0-.6,1.26,1.26,0,0,0-.27-.51,1,1,0,0,0-.42-.38,1.47,1.47,0,0,0-1.16-.15,1.53,1.53,0,0,0-.89.69l-.12.22a5.42,5.42,0,0,0-.22.56,4.28,4.28,0,0,0-.15.87,3.63,3.63,0,0,0,.08.86,2.09,2.09,0,0,0,.13.49,1.26,1.26,0,0,0,.27.51,1.18,1.18,0,0,0,.42.38,1.12,1.12,0,0,0,.56.18,1,1,0,0,0,.6,0,1.47,1.47,0,0,0,.89-.69l.16-.35a1.55,1.55,0,0,0,0-.8Z" transform="translate(-51.22 -28.39)"/><path class="cls-8" d="M121.53,45.43v.12a1.15,1.15,0,0,0,.13.58,1,1,0,0,0,.31.48,1.14,1.14,0,0,0,.48.31,1.06,1.06,0,0,0,.58.13l.4,0a1.49,1.49,0,0,0,.66-.39l.24-.3a1.54,1.54,0,0,0,.2-.76v-.12a1.06,1.06,0,0,0-.13-.58,1.36,1.36,0,0,0-.79-.79,1.06,1.06,0,0,0-.58-.13l-.4,0a1.49,1.49,0,0,0-.66.39l-.23.3a1.48,1.48,0,0,0-.21.76Z" transform="translate(-51.22 -28.39)"/><path class="cls-8" d="M112.42,31.55h0l-.41.05h-.07l-.06,0-.2.08-.21.09-.1.06-.31.24h0l0,0,0,0a1,1,0,0,0-.31.48,1.06,1.06,0,0,0-.13.58,1.08,1.08,0,0,0,.13.58,1.14,1.14,0,0,0,.31.48l.3.23a1.45,1.45,0,0,0,.76.21l.4-.06a1.57,1.57,0,0,0,.66-.38l.08-.08-.3.24a.57.57,0,0,1,.13-.08l-.36.15a.47.47,0,0,1,.16,0l-.4,0h0a1.27,1.27,0,0,0,.58-.13,1.34,1.34,0,0,0,.79-.8,1,1,0,0,0,.13-.57l0-.4a1.39,1.39,0,0,0-.39-.66l-.3-.24a1.57,1.57,0,0,0-.76-.2Z" transform="translate(-51.22 -28.39)"/><path class="cls-9" d="M111.11,32.24h0l1.16-.15h0l.9.69h0l.15.36h0l0,.4v0l0,.4a0,0,0,0,1,0,0l-.15.36h0l-.23.3L114.37,33a1.58,1.58,0,0,0,.43-1.06,1.17,1.17,0,0,0-.12-.58,1.37,1.37,0,0,0-.31-.48,1.54,1.54,0,0,0-1.07-.44l-.39.06a1.54,1.54,0,0,0-.67.38l-.93,1-.46.48a1.79,1.79,0,0,0-.45.73,1.6,1.6,0,0,0,0,.84,1.52,1.52,0,0,0,2.23.92,1.31,1.31,0,0,0,.42-.39,1.14,1.14,0,0,0,.27-.51,1.11,1.11,0,0,0,0-.6,1.08,1.08,0,0,0-.17-.55,1.51,1.51,0,0,0-.9-.69l-.4-.06a1.48,1.48,0,0,0-.76.21Z" transform="translate(-51.22 -28.39)"/><path class="cls-8" d="M111.68,35.12a1.5,1.5,0,0,0,0-3,1.5,1.5,0,0,0,0,3Z" transform="translate(-51.22 -28.39)"/><path class="cls-8" d="M111.47,35.33a1.5,1.5,0,0,0,0-3,1.5,1.5,0,0,0,0,3Z" transform="translate(-51.22 -28.39)"/><path class="cls-9" d="M117.16,42.78h0l.3-.23h0l.36-.15h0l.4,0h0l.4.06,0,0,.36.15,0,0,.3.23,0,0,.23.3,0,0,.15.36a.3.3,0,0,1,0-.1l0,.4v-.1l0,.4a2.54,2.54,0,0,1,.19-.61l-.15.35a3.57,3.57,0,0,1,.47-.8l-.24.3.11-.13.07-.08,0,0a1.24,1.24,0,0,0,.31-.48.75.75,0,0,0,.1-.38,1,1,0,0,0,0-.6,1.37,1.37,0,0,0-.27-.54l-.14-.17-.3-.23a1,1,0,0,0-.41-.17,1.08,1.08,0,0,0-.59,0,1.12,1.12,0,0,0-.56.18,1,1,0,0,0-.42.38,1.15,1.15,0,0,0-.27.51,1.51,1.51,0,0,0,.15,1.16l.23.3a1.47,1.47,0,0,0,.67.39h0l-.36-.15,0,0-.31-.24,0,0-.39-.66v0l.39-1.46a5,5,0,0,0-.66.86,5.94,5.94,0,0,0-.46,1,2.29,2.29,0,0,0-.1,1.46,1.82,1.82,0,0,0,.43.72,1.78,1.78,0,0,0,.74.43,1.87,1.87,0,0,0,.88,0,1.83,1.83,0,0,0,.74-.42,1.14,1.14,0,0,0,.31-.48,1.17,1.17,0,0,0,.13-.58,1.15,1.15,0,0,0-.13-.58,1,1,0,0,0-.31-.48,1.47,1.47,0,0,0-1.06-.44l-.4,0a1.49,1.49,0,0,0-.66.39Z" transform="translate(-51.22 -28.39)"/><path class="cls-8" d="M122.15,43.27l-.05.07.24-.31a.86.86,0,0,1-.13.14l.3-.24-.08,0,.36-.15-.07,0,.4-.06h-.07l.4.06s-.06,0-.08,0l.36.16-.07,0,.3.24-.08-.08.23.3a.54.54,0,0,1-.07-.13l.15.36a.83.83,0,0,1,0-.15l.06.4a1.74,1.74,0,0,1,0-.32,2.8,2.8,0,0,0-.06-.71,1.13,1.13,0,0,0-.26-.51,1.18,1.18,0,0,0-.42-.38,1.16,1.16,0,0,0-.56-.18,1.11,1.11,0,0,0-.6,0l-.36.16a1.61,1.61,0,0,0-.54.53l-.15.36a1.55,1.55,0,0,0,0,.8v0l0-.4c0,.19,0,.38,0,.57a4,4,0,0,0,.07.5,2.67,2.67,0,0,0,.18.44,1.62,1.62,0,0,0,.34.47,1.8,1.8,0,0,0,.79.48,1.65,1.65,0,0,0,1,0,1.82,1.82,0,0,0,.82-.47.6.6,0,0,0,.08-.08l.3-.39a1.16,1.16,0,0,0,.18-.56,1.22,1.22,0,0,0,0-.6,1,1,0,0,0-.27-.51,1.13,1.13,0,0,0-.42-.39l-.36-.15a1.51,1.51,0,0,0-.79,0l-.36.15a1.55,1.55,0,0,0-.54.54Z" transform="translate(-51.22 -28.39)"/><path class="cls-8" d="M124.17,44.77l0-.15A1.27,1.27,0,0,0,124,44a1.17,1.17,0,0,0-.31-.48l-.31-.24a1.11,1.11,0,0,0-.56-.17.65.65,0,0,0-.39,0,1.11,1.11,0,0,0-.56.17l-.31.24a1.57,1.57,0,0,0-.38.66.61.61,0,0,0,0,.13,3,3,0,0,0-.07.51,1.93,1.93,0,0,0,0,.24c0,.17,0,.35.07.51l0,.13a4.17,4.17,0,0,0,.24.58,3,3,0,0,0,.36.5,1.88,1.88,0,0,0,.82.5,1,1,0,0,0,.24,0l.25,0a1.79,1.79,0,0,0,.82-.22,1.58,1.58,0,0,0,.78-1,1.12,1.12,0,0,0,0-.6,1.16,1.16,0,0,0-.18-.56,1.18,1.18,0,0,0-.38-.42,1.26,1.26,0,0,0-.51-.27l-.4-.05a1.45,1.45,0,0,0-.76.21l-.3.23a1.49,1.49,0,0,0-.39.66,0,0,0,0,1,0,0L122,45s0,0,0,0l.23-.3,0,0,.3-.24,0,0,.36-.15h0l.39,0h-.06l.4,0h0l.36.15-.07,0,.31.23a.43.43,0,0,1-.1-.09l.24.3a1,1,0,0,1-.16-.26l.15.36a1.18,1.18,0,0,1-.08-.31l0,.39a1.93,1.93,0,0,1,0-.34l0,.4a1.18,1.18,0,0,1,0-.2l-2.94-.4,0,.15a1.17,1.17,0,0,0,.12.58,1.24,1.24,0,0,0,.31.48,1.21,1.21,0,0,0,.49.31,1.27,1.27,0,0,0,.58.13l.39-.06a1.54,1.54,0,0,0,.67-.38l.23-.31a1.51,1.51,0,0,0,.21-.75Z" transform="translate(-51.22 -28.39)"/><path class="cls-9" d="M122.62,45.81a1.5,1.5,0,0,0,0-3,1.5,1.5,0,0,0,0,3Z" transform="translate(-51.22 -28.39)"/><path class="cls-9" d="M111.18,35.69a1.5,1.5,0,0,0,0-3,1.5,1.5,0,0,0,0,3Z" transform="translate(-51.22 -28.39)"/><path class="cls-8" d="M123.83,47.55a1.5,1.5,0,0,0,0-3,1.5,1.5,0,0,0,0,3Z" transform="translate(-51.22 -28.39)"/><path class="cls-8" d="M124,47.45a1.5,1.5,0,0,0,0-3,1.5,1.5,0,0,0,0,3Z" transform="translate(-51.22 -28.39)"/><path class="cls-9" d="M123.76,47.6a1.5,1.5,0,0,0,0-3,1.5,1.5,0,0,0,0,3Z" transform="translate(-51.22 -28.39)"/><path class="cls-9" d="M124,45c0-.67.08-1.35.15-2l0,.4a.28.28,0,0,1,0-.13l-.15.36,0-.05-.54.54,0,0-.36.15h0l-.4,0H123l-.4-.06c.11,0,.21.06.32.09l-.36-.15a1.8,1.8,0,0,1,.35.21l-.3-.24a2,2,0,0,1,.29.29l-.24-.31a.41.41,0,0,1,.07.11l-.15-.36v.06l-.05-.4a1.62,1.62,0,0,0,.76,1.48,1.87,1.87,0,0,0,1,.24,7.15,7.15,0,0,0,1.3-.12,6.19,6.19,0,0,0,2.1-.81,1.5,1.5,0,0,0-1.15-2.74,5.41,5.41,0,0,0-2.78,2.24,1.61,1.61,0,0,0-.44,1.06,1.5,1.5,0,0,0,2.56,1.06,10,10,0,0,1,1.35-1.49l-.3.24a2.07,2.07,0,0,1,.45-.27l-.36.15a1.6,1.6,0,0,1,.31-.1l-1.15-2.74a6,6,0,0,1-.67.34l.36-.15a5.36,5.36,0,0,1-1.23.34l.4-.06a4.24,4.24,0,0,1-.87.05l.4,0h0l.36.15,0,0,.69.89,0-.05,0,.4a2.26,2.26,0,0,0-1.16-1.91,2.3,2.3,0,0,0-2.1-.32,1.69,1.69,0,0,0-1,1.38c0,.27-.07.55-.09.83,0,.46-.07.93-.09,1.39a1.5,1.5,0,0,0,1.5,1.5A1.52,1.52,0,0,0,124,45Z" transform="translate(-51.22 -28.39)"/><path class="cls-9" d="M124.1,43.73a2.13,2.13,0,0,0-.71.69,2.29,2.29,0,0,0-.21.46.65.65,0,0,1,0,.13l.15-.36s0,0,0,0l.24-.3,0,0a1.11,1.11,0,0,0-.31.48,1.27,1.27,0,0,0-.13.58l.06.4a1.06,1.06,0,0,0,.27.51.62.62,0,0,0,.27.26,1,1,0,0,0,.51.27l.39.06a1.43,1.43,0,0,0,.76-.21l.08,0-1.82-2.36c-.1.1-.19.21-.3.3l.3-.23-.06,0,.36-.15-.09,0,.4-.05h-.11l.4.05-.21-.05-.11,0-.43-.05h-.06a1.27,1.27,0,0,0-.58.13,1.24,1.24,0,0,0-.48.31,1.72,1.72,0,0,0-.44,1.06l0,.4a1.47,1.47,0,0,0,.39.66l.3.24a1.57,1.57,0,0,0,.76.2h.1l-.4,0,.26,0a2.11,2.11,0,0,0,1,0,1.76,1.76,0,0,0,.84-.52l.23-.23A1.08,1.08,0,0,0,126,46a1.06,1.06,0,0,0,.13-.58l-.05-.4a1.26,1.26,0,0,0-.27-.51.87.87,0,0,0-.27-.27A1.26,1.26,0,0,0,125,44l-.4,0a1.48,1.48,0,0,0-.76.21l-.07,0,1.82,2.36a1.83,1.83,0,0,0,.43-.74.56.56,0,0,1,0-.12l-.15.36a.3.3,0,0,1,.06-.11l-.24.31a.38.38,0,0,1,.09-.09l-.3.23.07,0a1,1,0,0,0,.42-.38,1.06,1.06,0,0,0,.27-.51,1.22,1.22,0,0,0,0-.6,1.12,1.12,0,0,0-.18-.56l-.23-.3a1.47,1.47,0,0,0-.67-.39l-.39,0a1.51,1.51,0,0,0-.76.2Z" transform="translate(-51.22 -28.39)"/><path class="cls-9" d="M121.24,45.78a2.15,2.15,0,0,0,2.05,1.76,1.52,1.52,0,0,0,1.5-1.5c0-.37,0-.75-.07-1.13s-.15-1-.22-1.44l0,.4a2.54,2.54,0,0,1,0-.39l-.05.4a.94.94,0,0,1,.06-.24,1.22,1.22,0,0,0,0-.6,1.09,1.09,0,0,0-.18-.55,1.52,1.52,0,0,0-.9-.69,1.49,1.49,0,0,0-1.15.15l-.31.23a1.57,1.57,0,0,0-.38.66,4.34,4.34,0,0,0,.08,2.26l0-.4a12.08,12.08,0,0,1,.1,1.34l1.5-1.5h-.08l.39.05-.11,0,.36.15-.11-.06.31.23a.63.63,0,0,1-.12-.11l.23.3a1.18,1.18,0,0,1-.11-.19l.16.36a1.12,1.12,0,0,1-.08-.26,1.5,1.5,0,0,0-1.85-1,1.49,1.49,0,0,0-.89.68,1.61,1.61,0,0,0-.15,1.16Z" transform="translate(-51.22 -28.39)"/><path class="cls-9" d="M123.53,44.86a1.5,1.5,0,0,0,0-3,1.5,1.5,0,0,0,0,3Z" transform="translate(-51.22 -28.39)"/><path class="cls-9" d="M113.87,32.75a4.25,4.25,0,0,0-1,.15,7.33,7.33,0,0,0-.91.39l.36-.15-.08,0,.4-.06h0l.4.06h0l.36.15,0,0,.3.23a2.68,2.68,0,0,0-.74-.6,2.9,2.9,0,0,0-.62-.23c-.21,0-.43-.06-.64-.08l.4,0-.16,0,.36.15-.08,0,.31.23,0,0,.24.31s0,0,0-.06V34.7a.25.25,0,0,1,0-.07l-.24.3a2.37,2.37,0,0,1,.38-.33l.48-.37.95-.74a1,1,0,0,0,.31-.48,1.15,1.15,0,0,0,.13-.58,1.5,1.5,0,0,0-.44-1.06,1.52,1.52,0,0,0-1.06-.44l-.4.05a1.59,1.59,0,0,0-.66.39l-1,.78-.5.39a2.32,2.32,0,0,0-.57.64,1.5,1.5,0,0,0,0,1.52,1.72,1.72,0,0,0,.59.61l.07,0a1.62,1.62,0,0,0,.41.17,5.52,5.52,0,0,0,.71.1l-.4-.06a1.12,1.12,0,0,1,.26.08l-.35-.15a1,1,0,0,1,.23.13l-.3-.23a1.41,1.41,0,0,1,.18.17,1.56,1.56,0,0,0,.79.49,1.78,1.78,0,0,0,1.26-.17l.28-.14-.36.16a2.94,2.94,0,0,1,.66-.19l-.4.06.23,0a1.63,1.63,0,0,0,1.06-.44,1.56,1.56,0,0,0,.44-1.06,1.54,1.54,0,0,0-.44-1.06,1.47,1.47,0,0,0-1.06-.44Z" transform="translate(-51.22 -28.39)"/><path class="cls-9" d="M113.87,31.92a1.5,1.5,0,0,0,0-3,1.5,1.5,0,0,0,0,3Z" transform="translate(-51.22 -28.39)"/><path class="cls-9" d="M113.83,32a1.5,1.5,0,0,0,0-3,1.5,1.5,0,0,0,0,3Z" transform="translate(-51.22 -28.39)"/><path class="cls-9" d="M115.56,32.65c1.52.62,3,1.32,4.48,2a10.66,10.66,0,0,1,2,1.07c.3.23.58.48.88.71l.38.27.28.16c.21.12.13,0-.23-.33v-.79l-.06.15,2.21-.9a25.42,25.42,0,0,1-2.72-1.59c-.39-.26-.79-.52-1.16-.8a2.93,2.93,0,0,0-.41-.38c-.18-.09,0-.31-.12.17l-.69.89c-.41.1-.42.13,0,.09l.26,0a4.62,4.62,0,0,1,.65.09c.57.09,1.14.2,1.7.32,1.08.22,2.15.48,3.22.78l.4-3c-2.77,0-5.53-.47-8.29-.13a1.5,1.5,0,0,0-.4,2.94,25.43,25.43,0,0,0,3.84,1,4.49,4.49,0,0,1,2.86,1.25l1.82-2.35q-3.8-1.67-7.71-3l-.4,3c2.32-.09,4.59.47,6.91.45a1.53,1.53,0,0,0,1.44-1.9c-.21-1.28-2-2-3-2.59a11.37,11.37,0,0,0-3.56-1.67l-.4,2.94a23.79,23.79,0,0,1,5,.08c1.64.14,3.28.35,4.91.62l-.36-2.75a4.71,4.71,0,0,1-2.13.48c-.91.09-1.83.14-2.75.17a34.18,34.18,0,0,0-5.45.22,1.52,1.52,0,0,0-1.1,1.45,1.56,1.56,0,0,0,1.1,1.45c2.24.86,4.71.76,7,1.6l-.89-2.2-.07.13.54-.54c.18-.13-.39,0-.49,0h-.81c-.68,0-1.36,0-2-.11a10.78,10.78,0,0,0-3.84,0c-1.14.35-1.59,2.16-.36,2.74A20.89,20.89,0,0,0,122.69,36l5.1,1v-2.9a12.6,12.6,0,0,1-4.54,0c-1.64-.15-3.27-.35-4.92-.38a1.5,1.5,0,0,0,0,3,41.72,41.72,0,0,1,4.17.71c.69.16,1.38.33,2.06.52a7.49,7.49,0,0,1,1.9.65V36c-.3.18-1.1,0-1.46,0l-2-.17-4.24-.36c-1.7-.14-2,2.53-.4,3,3.57.92,7.33.66,10.87,1.72V37.2a10.06,10.06,0,0,1-4,.16c-1.46-.09-2.93-.23-4.4-.27a1.48,1.48,0,0,0-1.47,1.3A1.5,1.5,0,0,0,120.36,40a30.37,30.37,0,0,0,3.74,1c.58.13,1.17.27,1.75.42a5.53,5.53,0,0,1,1.66.57l-.54-.54.09.14,1.29-2.26a23.23,23.23,0,0,1-4.71-1.12,15.69,15.69,0,0,0-2.55-.47c-.86-.09-1.75,0-2.61-.09l-.4,3h.14a1.5,1.5,0,0,0,1.5-1.5,1.54,1.54,0,0,0-1.5-1.5h-.14c-1.66-.21-2.07,2.68-.4,2.94,1,.16,2,.11,3,.17a11.11,11.11,0,0,1,2.35.46,24.46,24.46,0,0,0,5.27,1.16,1.52,1.52,0,0,0,1.3-2.26c-.8-1.25-2.78-1.5-4.13-1.82a36.82,36.82,0,0,1-4.36-1.15l-.4,3c1.56,0,3.11.2,4.67.28A11.42,11.42,0,0,0,130,40.1a1.52,1.52,0,0,0,0-2.9c-3.54-1.05-7.3-.79-10.87-1.71l-.4,2.94,4.78.4c1.43.12,3.17.56,4.48-.23A1.52,1.52,0,0,0,128,36a15.8,15.8,0,0,0-4.67-1.47,46.38,46.38,0,0,0-5-.82v3c1.74,0,3.46.25,5.19.41a14.38,14.38,0,0,0,5.07-.12c1.35-.4,1.51-2.59,0-2.9l-4.83-1-2.28-.46a9.44,9.44,0,0,1-2.11-.45L119,35a5.59,5.59,0,0,1,2,.07c.77.06,1.54.13,2.31.16,1.3.07,3.56.37,4.24-1.06a1.53,1.53,0,0,0-.9-2.2c-2.25-.85-4.72-.74-7-1.61v2.9a15,15,0,0,1,2.6-.09c1,0,1.93,0,2.89-.06s1.83-.12,2.74-.23a6.59,6.59,0,0,0,2.82-.79c1-.64,1-2.52-.36-2.75-1.8-.29-3.61-.53-5.43-.69a23.74,23.74,0,0,0-5.26-.11,1.52,1.52,0,0,0-1.47,1.3,1.49,1.49,0,0,0,1.07,1.65,7.56,7.56,0,0,1,2.38,1.09l1.28.77.69.43.22.15c.36.26.33.17-.1-.28l1.45-1.89c-2.32,0-4.59-.54-6.91-.45a1.5,1.5,0,0,0-.4,2.94c2.37.82,4.7,1.72,7,2.72a1.51,1.51,0,0,0,1.82-2.36A6.29,6.29,0,0,0,123,32.65a34.55,34.55,0,0,1-4.35-1.08l-.4,3c2.76-.34,5.52.17,8.29.13a1.5,1.5,0,0,0,.4-2.94,44.46,44.46,0,0,0-4.4-1c-1.36-.25-3.9-.9-4.4,1-.42,1.57.92,2.81,2,3.62a27.77,27.77,0,0,0,3.75,2.31,1.53,1.53,0,0,0,2.21-.89c.48-1.22-.48-2-1.37-2.58a28.59,28.59,0,0,0-2.41-1.66c-2-1-4-1.88-6-2.71a1.5,1.5,0,0,0-1.84,1,1.53,1.53,0,0,0,1,1.84Z" transform="translate(-51.22 -28.39)"/></svg>